# xmcd CD database file
#
# Track frame offsets:
#	150
#	45546
#	69879
#	94031
#	115448
#	129619
#	142947
#	170965
#
# Disc length: 2493 seconds
#
# Revision: 0
# Processed by: cddbd v1.5.1PL0 Copyright (c) Steve Scherf et al.
# Submitted via: CDex 1.60beta1
#
DISCID=6e09bb08
DTITLE=The Mitchell-Ruff Duo - Virtuoso Elelgance In Jazz
DYEAR=1900
DGENRE=Jazz
TTITLE0=Light Blues
TTITLE1=Ill Wind
TTITLE2=I've Got A Crush On You
TTITLE3=My Man's Gone Now
TTITLE4=L.M.E.
TTITLE5=Last Night When We Were Young
TTITLE6=I Got Rhythm
TTITLE7=Stardust
EXTD=
EXTT0=
EXTT1=
EXTT2=
EXTT3=
EXTT4=
EXTT5=
EXTT6=
EXTT7=
PLAYORDER=
